<mxfile host="www.draw.io" modified="2020-05-28T06:56:23.542Z" agent="5.0 (X11; Linux x86_64) AppleWebKit/537.36 (KHTML, like Gecko) Chrome/80.0.3987.149 Safari/537.36" etag="Hg8TEC2E9vFYPY4Dw2HB" version="13.1.3" type="github">
  <diagram name="Page-1" id="13e1069c-82ec-6db2-03f1-153e76fe0fe0">
    <mxGraphModel dx="821" dy="412" grid="1" gridSize="10" guides="1" tooltips="1" connect="1" arrows="1" fold="1" page="1" pageScale="1" pageWidth="1100" pageHeight="850" background="#ffffff" math="0" shadow="0">
      <root>
        <mxCell id="0" />
        <mxCell id="1" parent="0" />
        <mxCell id="7baba1c4bc27f4b0-2" value="Server" style="shape=umlLifeline;perimeter=lifelinePerimeter;whiteSpace=wrap;html=1;container=1;collapsible=0;recursiveResize=0;outlineConnect=0;rounded=1;shadow=0;comic=0;labelBackgroundColor=none;strokeWidth=1;fontFamily=Verdana;fontSize=12;align=center;" parent="1" vertex="1">
          <mxGeometry x="150" y="80" width="100" height="520" as="geometry" />
        </mxCell>
        <mxCell id="7baba1c4bc27f4b0-10" value="" style="html=1;points=[];perimeter=orthogonalPerimeter;rounded=0;shadow=0;comic=0;labelBackgroundColor=none;strokeWidth=1;fontFamily=Verdana;fontSize=12;align=center;" parent="7baba1c4bc27f4b0-2" vertex="1">
          <mxGeometry x="45" y="100" width="10" height="300" as="geometry" />
        </mxCell>
        <mxCell id="7baba1c4bc27f4b0-3" value="Server-DMS" style="shape=umlLifeline;perimeter=lifelinePerimeter;whiteSpace=wrap;html=1;container=1;collapsible=0;recursiveResize=0;outlineConnect=0;rounded=1;shadow=0;comic=0;labelBackgroundColor=none;strokeWidth=1;fontFamily=Verdana;fontSize=12;align=center;" parent="1" vertex="1">
          <mxGeometry x="310" y="80" width="100" height="520" as="geometry" />
        </mxCell>
        <mxCell id="7baba1c4bc27f4b0-13" value="" style="html=1;points=[];perimeter=orthogonalPerimeter;rounded=0;shadow=0;comic=0;labelBackgroundColor=none;strokeWidth=1;fontFamily=Verdana;fontSize=12;align=center;" parent="7baba1c4bc27f4b0-3" vertex="1">
          <mxGeometry x="45" y="130" width="10" height="100" as="geometry" />
        </mxCell>
        <mxCell id="MA9zOeiMcZjgk_4H-VxD-4" value="" style="endArrow=classic;html=1;entryX=0.917;entryY=0.807;entryDx=0;entryDy=0;entryPerimeter=0;" parent="7baba1c4bc27f4b0-3" source="7baba1c4bc27f4b0-13" target="7baba1c4bc27f4b0-13" edge="1">
          <mxGeometry width="50" height="50" relative="1" as="geometry">
            <mxPoint x="60" y="190" as="sourcePoint" />
            <mxPoint x="60" y="210" as="targetPoint" />
            <Array as="points">
              <mxPoint x="95" y="190" />
              <mxPoint x="95" y="210" />
            </Array>
          </mxGeometry>
        </mxCell>
        <mxCell id="MA9zOeiMcZjgk_4H-VxD-5" value="添加操作记录" style="edgeLabel;html=1;align=center;verticalAlign=middle;resizable=0;points=[];" parent="MA9zOeiMcZjgk_4H-VxD-4" vertex="1" connectable="0">
          <mxGeometry x="0.2646" y="4" relative="1" as="geometry">
            <mxPoint x="2.1400000000000006" y="-34" as="offset" />
          </mxGeometry>
        </mxCell>
        <mxCell id="7baba1c4bc27f4b0-4" value="COS" style="shape=umlLifeline;perimeter=lifelinePerimeter;whiteSpace=wrap;html=1;container=1;collapsible=0;recursiveResize=0;outlineConnect=0;rounded=1;shadow=0;comic=0;labelBackgroundColor=none;strokeWidth=1;fontFamily=Verdana;fontSize=12;align=center;" parent="1" vertex="1">
          <mxGeometry x="450" y="80" width="100" height="520" as="geometry" />
        </mxCell>
        <mxCell id="xlW8FgNKMWvTDW37BjdF-15" value="" style="html=1;points=[];perimeter=orthogonalPerimeter;rounded=0;shadow=0;comic=0;labelBackgroundColor=none;strokeWidth=1;fontFamily=Verdana;fontSize=12;align=center;" parent="7baba1c4bc27f4b0-4" vertex="1">
          <mxGeometry x="45" y="305" width="10" height="40" as="geometry" />
        </mxCell>
        <mxCell id="7baba1c4bc27f4b0-8" value="Client" style="shape=umlLifeline;perimeter=lifelinePerimeter;whiteSpace=wrap;html=1;container=1;collapsible=0;recursiveResize=0;outlineConnect=0;rounded=1;shadow=0;comic=0;labelBackgroundColor=none;strokeWidth=1;fontFamily=Verdana;fontSize=12;align=center;" parent="1" vertex="1">
          <mxGeometry x="10" y="80" width="100" height="520" as="geometry" />
        </mxCell>
        <mxCell id="7baba1c4bc27f4b0-9" value="" style="html=1;points=[];perimeter=orthogonalPerimeter;rounded=0;shadow=0;comic=0;labelBackgroundColor=none;strokeWidth=1;fontFamily=Verdana;fontSize=12;align=center;" parent="7baba1c4bc27f4b0-8" vertex="1">
          <mxGeometry x="45" y="100" width="10" height="300" as="geometry" />
        </mxCell>
        <mxCell id="7baba1c4bc27f4b0-11" value="请求删除文件" style="html=1;verticalAlign=bottom;endArrow=block;entryX=0;entryY=0;labelBackgroundColor=none;fontFamily=Verdana;fontSize=12;edgeStyle=elbowEdgeStyle;elbow=vertical;" parent="1" source="7baba1c4bc27f4b0-9" target="7baba1c4bc27f4b0-10" edge="1">
          <mxGeometry relative="1" as="geometry">
            <mxPoint x="130" y="190" as="sourcePoint" />
          </mxGeometry>
        </mxCell>
        <mxCell id="7baba1c4bc27f4b0-14" value="成功" style="html=1;verticalAlign=bottom;endArrow=block;labelBackgroundColor=none;fontFamily=Verdana;fontSize=12;edgeStyle=elbowEdgeStyle;elbow=vertical;entryX=1.5;entryY=0.983;entryDx=0;entryDy=0;entryPerimeter=0;" parent="1" source="7baba1c4bc27f4b0-10" target="7baba1c4bc27f4b0-9" edge="1">
          <mxGeometry y="-53" relative="1" as="geometry">
            <mxPoint x="120" y="475" as="sourcePoint" />
            <Array as="points">
              <mxPoint x="60" y="475" />
            </Array>
            <mxPoint x="52" y="53" as="offset" />
            <mxPoint x="70" y="475" as="targetPoint" />
          </mxGeometry>
        </mxCell>
        <mxCell id="xlW8FgNKMWvTDW37BjdF-1" value="客户端删除文件" style="shape=note;whiteSpace=wrap;html=1;backgroundOutline=1;darkOpacity=0.05;" parent="1" vertex="1">
          <mxGeometry x="10" y="10" width="150" height="50" as="geometry" />
        </mxCell>
        <mxCell id="xlW8FgNKMWvTDW37BjdF-2" value="" style="endArrow=classic;html=1;exitX=1.243;exitY=0.102;exitDx=0;exitDy=0;exitPerimeter=0;" parent="1" source="7baba1c4bc27f4b0-10" target="7baba1c4bc27f4b0-13" edge="1">
          <mxGeometry width="50" height="50" relative="1" as="geometry">
            <mxPoint x="210" y="193" as="sourcePoint" />
            <mxPoint x="270" y="190" as="targetPoint" />
          </mxGeometry>
        </mxCell>
        <mxCell id="xlW8FgNKMWvTDW37BjdF-4" value="请求删除文件" style="edgeLabel;html=1;align=center;verticalAlign=middle;resizable=0;points=[];" parent="xlW8FgNKMWvTDW37BjdF-2" vertex="1" connectable="0">
          <mxGeometry x="0.2646" y="4" relative="1" as="geometry">
            <mxPoint x="-60.57" y="-6.6" as="offset" />
          </mxGeometry>
        </mxCell>
        <mxCell id="xlW8FgNKMWvTDW37BjdF-5" value="成功" style="html=1;verticalAlign=bottom;endArrow=block;labelBackgroundColor=none;fontFamily=Verdana;fontSize=12;edgeStyle=elbowEdgeStyle;elbow=vertical;" parent="1" target="7baba1c4bc27f4b0-10" edge="1">
          <mxGeometry x="-0.6473" y="-1" relative="1" as="geometry">
            <mxPoint x="361" y="310" as="sourcePoint" />
            <mxPoint x="210" y="310" as="targetPoint" />
            <Array as="points">
              <mxPoint x="275" y="310" />
              <mxPoint x="275" y="301" />
            </Array>
            <mxPoint as="offset" />
          </mxGeometry>
        </mxCell>
        <mxCell id="xlW8FgNKMWvTDW37BjdF-13" value="" style="endArrow=classic;html=1;" parent="1" target="xlW8FgNKMWvTDW37BjdF-15" edge="1">
          <mxGeometry width="50" height="50" relative="1" as="geometry">
            <mxPoint x="205" y="385" as="sourcePoint" />
            <mxPoint x="357.57" y="384.9999999999999" as="targetPoint" />
          </mxGeometry>
        </mxCell>
        <mxCell id="xlW8FgNKMWvTDW37BjdF-14" value="请求删除文件" style="edgeLabel;html=1;align=center;verticalAlign=middle;resizable=0;points=[];" parent="xlW8FgNKMWvTDW37BjdF-13" vertex="1" connectable="0">
          <mxGeometry x="0.2646" y="4" relative="1" as="geometry">
            <mxPoint x="-138.32999999999998" y="-5.999999999999999" as="offset" />
          </mxGeometry>
        </mxCell>
        <mxCell id="xlW8FgNKMWvTDW37BjdF-16" style="edgeStyle=orthogonalEdgeStyle;rounded=0;orthogonalLoop=1;jettySize=auto;html=1;entryX=0.5;entryY=0.611;entryDx=0;entryDy=0;entryPerimeter=0;" parent="1" edge="1">
          <mxGeometry relative="1" as="geometry">
            <mxPoint x="495" y="424.9999999999999" as="sourcePoint" />
            <mxPoint x="200" y="424.9999999999999" as="targetPoint" />
          </mxGeometry>
        </mxCell>
        <mxCell id="xlW8FgNKMWvTDW37BjdF-18" value="成功" style="edgeLabel;html=1;align=center;verticalAlign=middle;resizable=0;points=[];" parent="xlW8FgNKMWvTDW37BjdF-16" vertex="1" connectable="0">
          <mxGeometry x="-0.8728" y="-1" relative="1" as="geometry">
            <mxPoint x="3.860000000000003" y="-9" as="offset" />
          </mxGeometry>
        </mxCell>
        <mxCell id="MA9zOeiMcZjgk_4H-VxD-1" value="" style="endArrow=classic;html=1;" parent="1" source="7baba1c4bc27f4b0-13" edge="1">
          <mxGeometry width="50" height="50" relative="1" as="geometry">
            <mxPoint x="370" y="220" as="sourcePoint" />
            <mxPoint x="365" y="240" as="targetPoint" />
            <Array as="points">
              <mxPoint x="400" y="220" />
              <mxPoint x="400" y="240" />
            </Array>
          </mxGeometry>
        </mxCell>
        <mxCell id="MA9zOeiMcZjgk_4H-VxD-2" value="删除文件节点" style="edgeLabel;html=1;align=center;verticalAlign=middle;resizable=0;points=[];" parent="MA9zOeiMcZjgk_4H-VxD-1" vertex="1" connectable="0">
          <mxGeometry x="0.2646" y="4" relative="1" as="geometry">
            <mxPoint x="2.1400000000000006" y="-34" as="offset" />
          </mxGeometry>
        </mxCell>
      </root>
    </mxGraphModel>
  </diagram>
</mxfile>
